<?xml version="1.0" standalone="no"?>
<!DOCTYPE svg PUBLIC "-//W3C//DTD SVG 20010904//EN"
 "http://www.w3.org/TR/2001/REC-SVG-20010904/DTD/svg10.dtd">
<svg version="1.0" xmlns="http://www.w3.org/2000/svg"
 width="626.000000pt" height="626.000000pt" viewBox="0 0 626.000000 626.000000"
 preserveAspectRatio="xMidYMid meet">

<g transform="translate(0.000000,626.000000) scale(0.100000,-0.100000)"
fill="#000000" stroke="none">
<path d="M1442 5309 c-251 -42 -445 -235 -488 -483 -12 -69 -14 -341 -11
-1737 2 -1519 4 -1658 19 -1709 62 -199 200 -343 392 -407 l81 -28 673 -3 672
-3 0 770 0 771 -275 0 -275 0 0 320 0 320 275 0 275 0 0 304 c0 335 8 420 49
536 39 111 84 182 176 274 115 117 233 181 393 213 88 17 503 24 635 10 l77
-9 0 -292 0 -293 -152 0 c-236 1 -348 -36 -422 -141 -52 -73 -54 -88 -55 -354
l-1 -248 311 0 311 0 -6 -27 c-10 -46 -106 -597 -106 -605 0 -4 -115 -8 -255
-8 l-255 0 0 -771 0 -770 673 4 c740 4 709 1 847 68 95 47 206 161 252 259 67
141 63 20 63 1870 l0 1685 -27 81 c-66 192 -209 330 -408 392 -51 15 -188 17
-1720 18 -929 1 -1688 -2 -1718 -7z"/>
</g>
</svg>
